<mxfile host="app.diagrams.net" modified="2023-01-16T14:22:25.453Z" agent="5.0 (Windows NT 10.0; Win64; x64) AppleWebKit/537.36 (KHTML, like Gecko) Chrome/108.0.0.0 Safari/537.36" version="20.8.5" etag="zMjxtlEWzOx75LBC7nif" type="github">
  <diagram id="sQuSlrcKvVO8Q4xEA5H8" name="Page-1">
    <mxGraphModel dx="2074" dy="1124" grid="1" gridSize="10" guides="1" tooltips="1" connect="1" arrows="1" fold="1" page="1" pageScale="1" pageWidth="827" pageHeight="1169" math="0" shadow="0">
      <root>
        <mxCell id="0" />
        <mxCell id="1" parent="0" />
        <mxCell id="2WWt8Vpvchj_IaDbux5o-30" value="Genesis Enrichment" style="rounded=1;whiteSpace=wrap;html=1;verticalAlign=top;" vertex="1" parent="1">
          <mxGeometry x="70" y="170" width="140" height="780" as="geometry" />
        </mxCell>
        <mxCell id="2WWt8Vpvchj_IaDbux5o-3" value="" style="edgeStyle=orthogonalEdgeStyle;rounded=0;orthogonalLoop=1;jettySize=auto;html=1;" edge="1" parent="1" source="2WWt8Vpvchj_IaDbux5o-1" target="2WWt8Vpvchj_IaDbux5o-2">
          <mxGeometry relative="1" as="geometry" />
        </mxCell>
        <mxCell id="2WWt8Vpvchj_IaDbux5o-1" value="Create invoice number" style="rounded=1;whiteSpace=wrap;html=1;" vertex="1" parent="1">
          <mxGeometry x="80" y="200" width="120" height="30" as="geometry" />
        </mxCell>
        <mxCell id="2WWt8Vpvchj_IaDbux5o-5" value="" style="edgeStyle=orthogonalEdgeStyle;rounded=0;orthogonalLoop=1;jettySize=auto;html=1;" edge="1" parent="1" source="2WWt8Vpvchj_IaDbux5o-2" target="2WWt8Vpvchj_IaDbux5o-4">
          <mxGeometry relative="1" as="geometry" />
        </mxCell>
        <mxCell id="2WWt8Vpvchj_IaDbux5o-2" value="Map FRN" style="rounded=1;whiteSpace=wrap;html=1;" vertex="1" parent="1">
          <mxGeometry x="80" y="250" width="120" height="30" as="geometry" />
        </mxCell>
        <mxCell id="2WWt8Vpvchj_IaDbux5o-7" value="" style="edgeStyle=orthogonalEdgeStyle;rounded=0;orthogonalLoop=1;jettySize=auto;html=1;" edge="1" parent="1" source="2WWt8Vpvchj_IaDbux5o-4" target="2WWt8Vpvchj_IaDbux5o-6">
          <mxGeometry relative="1" as="geometry" />
        </mxCell>
        <mxCell id="2WWt8Vpvchj_IaDbux5o-4" value="Split lines by company codes" style="rounded=1;whiteSpace=wrap;html=1;" vertex="1" parent="1">
          <mxGeometry x="80" y="300" width="120" height="30" as="geometry" />
        </mxCell>
        <mxCell id="2WWt8Vpvchj_IaDbux5o-9" style="edgeStyle=orthogonalEdgeStyle;rounded=0;orthogonalLoop=1;jettySize=auto;html=1;" edge="1" parent="1" source="2WWt8Vpvchj_IaDbux5o-6" target="2WWt8Vpvchj_IaDbux5o-8">
          <mxGeometry relative="1" as="geometry" />
        </mxCell>
        <mxCell id="2WWt8Vpvchj_IaDbux5o-6" value="Map company code" style="rounded=1;whiteSpace=wrap;html=1;" vertex="1" parent="1">
          <mxGeometry x="80" y="350" width="120" height="30" as="geometry" />
        </mxCell>
        <mxCell id="2WWt8Vpvchj_IaDbux5o-11" value="" style="edgeStyle=orthogonalEdgeStyle;rounded=0;orthogonalLoop=1;jettySize=auto;html=1;" edge="1" parent="1" source="2WWt8Vpvchj_IaDbux5o-8" target="2WWt8Vpvchj_IaDbux5o-10">
          <mxGeometry relative="1" as="geometry" />
        </mxCell>
        <mxCell id="2WWt8Vpvchj_IaDbux5o-8" value="Map Oregon account code" style="rounded=1;whiteSpace=wrap;html=1;" vertex="1" parent="1">
          <mxGeometry x="80" y="400" width="120" height="30" as="geometry" />
        </mxCell>
        <mxCell id="2WWt8Vpvchj_IaDbux5o-13" value="" style="edgeStyle=orthogonalEdgeStyle;rounded=0;orthogonalLoop=1;jettySize=auto;html=1;" edge="1" parent="1" source="2WWt8Vpvchj_IaDbux5o-10" target="2WWt8Vpvchj_IaDbux5o-12">
          <mxGeometry relative="1" as="geometry" />
        </mxCell>
        <mxCell id="2WWt8Vpvchj_IaDbux5o-10" value="Map Objective code" style="rounded=1;whiteSpace=wrap;html=1;" vertex="1" parent="1">
          <mxGeometry x="80" y="450" width="120" height="30" as="geometry" />
        </mxCell>
        <mxCell id="2WWt8Vpvchj_IaDbux5o-15" value="" style="edgeStyle=orthogonalEdgeStyle;rounded=0;orthogonalLoop=1;jettySize=auto;html=1;" edge="1" parent="1" source="2WWt8Vpvchj_IaDbux5o-12" target="2WWt8Vpvchj_IaDbux5o-14">
          <mxGeometry relative="1" as="geometry" />
        </mxCell>
        <mxCell id="2WWt8Vpvchj_IaDbux5o-12" value="Map Oregon marketing year" style="rounded=1;whiteSpace=wrap;html=1;" vertex="1" parent="1">
          <mxGeometry x="80" y="500" width="120" height="30" as="geometry" />
        </mxCell>
        <mxCell id="2WWt8Vpvchj_IaDbux5o-17" value="" style="edgeStyle=orthogonalEdgeStyle;rounded=0;orthogonalLoop=1;jettySize=auto;html=1;" edge="1" parent="1" source="2WWt8Vpvchj_IaDbux5o-14" target="2WWt8Vpvchj_IaDbux5o-16">
          <mxGeometry relative="1" as="geometry" />
        </mxCell>
        <mxCell id="2WWt8Vpvchj_IaDbux5o-14" value="Map DAX account code" style="rounded=1;whiteSpace=wrap;html=1;" vertex="1" parent="1">
          <mxGeometry x="80" y="554.5" width="120" height="30" as="geometry" />
        </mxCell>
        <mxCell id="2WWt8Vpvchj_IaDbux5o-19" value="" style="edgeStyle=orthogonalEdgeStyle;rounded=0;orthogonalLoop=1;jettySize=auto;html=1;" edge="1" parent="1" source="2WWt8Vpvchj_IaDbux5o-16" target="2WWt8Vpvchj_IaDbux5o-18">
          <mxGeometry relative="1" as="geometry" />
        </mxCell>
        <mxCell id="2WWt8Vpvchj_IaDbux5o-16" value="Map DAX marketing year" style="rounded=1;whiteSpace=wrap;html=1;" vertex="1" parent="1">
          <mxGeometry x="80" y="610" width="120" height="30" as="geometry" />
        </mxCell>
        <mxCell id="2WWt8Vpvchj_IaDbux5o-21" value="" style="edgeStyle=orthogonalEdgeStyle;rounded=0;orthogonalLoop=1;jettySize=auto;html=1;" edge="1" parent="1" source="2WWt8Vpvchj_IaDbux5o-18" target="2WWt8Vpvchj_IaDbux5o-20">
          <mxGeometry relative="1" as="geometry" />
        </mxCell>
        <mxCell id="2WWt8Vpvchj_IaDbux5o-18" value="Map fund code" style="rounded=1;whiteSpace=wrap;html=1;" vertex="1" parent="1">
          <mxGeometry x="80" y="660" width="120" height="30" as="geometry" />
        </mxCell>
        <mxCell id="2WWt8Vpvchj_IaDbux5o-23" value="" style="edgeStyle=orthogonalEdgeStyle;rounded=0;orthogonalLoop=1;jettySize=auto;html=1;" edge="1" parent="1" source="2WWt8Vpvchj_IaDbux5o-20" target="2WWt8Vpvchj_IaDbux5o-22">
          <mxGeometry relative="1" as="geometry" />
        </mxCell>
        <mxCell id="2WWt8Vpvchj_IaDbux5o-20" value="Map scheme code" style="rounded=1;whiteSpace=wrap;html=1;" vertex="1" parent="1">
          <mxGeometry x="80" y="710" width="120" height="30" as="geometry" />
        </mxCell>
        <mxCell id="2WWt8Vpvchj_IaDbux5o-25" value="" style="edgeStyle=orthogonalEdgeStyle;rounded=0;orthogonalLoop=1;jettySize=auto;html=1;" edge="1" parent="1" source="2WWt8Vpvchj_IaDbux5o-22" target="2WWt8Vpvchj_IaDbux5o-24">
          <mxGeometry relative="1" as="geometry" />
        </mxCell>
        <mxCell id="2WWt8Vpvchj_IaDbux5o-22" value="Map delivery body" style="rounded=1;whiteSpace=wrap;html=1;" vertex="1" parent="1">
          <mxGeometry x="80" y="760" width="120" height="30" as="geometry" />
        </mxCell>
        <mxCell id="2WWt8Vpvchj_IaDbux5o-27" value="" style="edgeStyle=orthogonalEdgeStyle;rounded=0;orthogonalLoop=1;jettySize=auto;html=1;" edge="1" parent="1" source="2WWt8Vpvchj_IaDbux5o-24" target="2WWt8Vpvchj_IaDbux5o-26">
          <mxGeometry relative="1" as="geometry" />
        </mxCell>
        <mxCell id="2WWt8Vpvchj_IaDbux5o-24" value="Map value" style="rounded=1;whiteSpace=wrap;html=1;" vertex="1" parent="1">
          <mxGeometry x="80" y="810" width="120" height="30" as="geometry" />
        </mxCell>
        <mxCell id="2WWt8Vpvchj_IaDbux5o-29" value="" style="edgeStyle=orthogonalEdgeStyle;rounded=0;orthogonalLoop=1;jettySize=auto;html=1;" edge="1" parent="1" source="2WWt8Vpvchj_IaDbux5o-26" target="2WWt8Vpvchj_IaDbux5o-28">
          <mxGeometry relative="1" as="geometry" />
        </mxCell>
        <mxCell id="2WWt8Vpvchj_IaDbux5o-26" value="Apply dual accounting" style="rounded=1;whiteSpace=wrap;html=1;" vertex="1" parent="1">
          <mxGeometry x="80" y="860" width="120" height="30" as="geometry" />
        </mxCell>
        <mxCell id="2WWt8Vpvchj_IaDbux5o-28" value="Validate co-financing rate" style="rounded=1;whiteSpace=wrap;html=1;" vertex="1" parent="1">
          <mxGeometry x="80" y="910" width="120" height="30" as="geometry" />
        </mxCell>
      </root>
    </mxGraphModel>
  </diagram>
</mxfile>
